<?xml version="1.0" standalone="no"?>
<!DOCTYPE svg PUBLIC "-//W3C//DTD SVG 20010904//EN"
 "http://www.w3.org/TR/2001/REC-SVG-20010904/DTD/svg10.dtd">
<svg version="1.0" xmlns="http://www.w3.org/2000/svg"
 width="800.000000pt" height="800.000000pt" viewBox="0 0 800.000000 800.000000"
 preserveAspectRatio="xMidYMid meet">
<metadata>
Created by potrace 1.11, written by Peter Selinger 2001-2013
</metadata>
<g transform="translate(0.000000,800.000000) scale(0.100000,-0.100000)"
fill="#000000" stroke="none">
<path d="M2880 6531 c-74 -21 -225 -66 -335 -101 -463 -144 -601 -210 -640
-303 -24 -59 -6 -792 25 -1037 5 -41 12 -298 15 -570 4 -285 12 -559 20 -645
10 -109 12 -200 6 -325 -4 -96 -7 -393 -6 -660 l1 -485 29 2 c16 1 49 16 74
32 100 66 366 189 380 176 8 -9 8 -118 -2 -311 l-8 -161 30 5 c58 8 58 8 -184
-243 -96 -99 -209 -225 -251 -280 -42 -55 -95 -120 -117 -144 l-41 -45 25 -6
c13 -4 39 -15 58 -25 87 -45 471 -168 876 -281 66 -18 181 -54 255 -79 74 -25
227 -70 340 -101 113 -30 232 -63 265 -74 33 -10 130 -37 215 -60 85 -22 193
-55 240 -72 47 -16 119 -39 160 -50 41 -11 131 -39 200 -63 69 -24 213 -72
320 -105 107 -34 205 -66 218 -71 39 -15 49 -11 119 50 37 33 136 119 218 192
341 300 424 354 437 291 6 -24 -12 -62 -29 -62 -7 0 -27 -14 -45 -30 -17 -17
-35 -30 -41 -30 -5 0 -7 -7 -3 -15 3 -9 0 -15 -8 -15 -17 0 -58 -48 -51 -60 3
-6 -1 -7 -9 -4 -11 4 -16 0 -16 -11 0 -14 -6 -17 -34 -12 -32 5 -42 -2 -182
-126 -82 -72 -177 -158 -211 -192 -33 -33 -71 -61 -83 -63 -13 -1 -190 54
-394 122 -204 69 -396 131 -426 139 -30 8 -93 29 -140 45 -47 17 -155 50 -240
72 -85 23 -190 53 -232 66 -42 13 -168 48 -280 78 -112 30 -270 77 -353 104
-138 46 -286 90 -600 178 -123 34 -216 65 -390 130 -55 20 -121 45 -148 54
-26 9 -50 20 -54 24 -3 3 -12 6 -20 6 -20 0 -19 -266 1 -273 8 -3 17 -3 21 1
8 9 74 9 69 1 -6 -11 22 -18 48 -12 18 4 20 2 8 -6 -12 -8 -9 -12 15 -21 17
-6 41 -15 55 -20 14 -5 84 -21 155 -35 72 -14 138 -30 148 -36 12 -6 24 -6 38
2 11 6 23 8 27 5 3 -3 0 -6 -6 -6 -7 0 -12 -4 -12 -10 0 -5 11 -10 23 -10 13
0 39 -7 57 -17 26 -13 39 -14 62 -5 16 6 30 6 34 1 3 -5 -3 -9 -13 -10 -23 0
31 -21 129 -48 42 -11 85 -18 95 -15 13 4 14 3 5 -3 -14 -10 43 -31 106 -39
19 -3 40 -8 46 -11 6 -4 17 -8 26 -9 8 -2 47 -12 85 -23 39 -12 92 -26 119
-31 27 -6 55 -15 62 -21 7 -6 22 -8 34 -4 11 3 20 2 20 -2 0 -5 28 -15 63 -22
34 -8 103 -26 152 -42 50 -15 133 -39 185 -53 151 -39 249 -66 341 -92 47 -13
96 -24 109 -24 13 0 20 -3 17 -7 -7 -7 124 -53 149 -53 8 0 23 -4 34 -10 11
-5 30 -15 41 -21 12 -6 41 -12 66 -14 24 -1 47 -6 51 -10 4 -4 -4 -5 -18 -1
-39 10 57 -33 138 -61 40 -14 80 -22 89 -18 10 3 14 3 10 -1 -4 -4 30 -20 75
-35 147 -47 255 -79 273 -79 9 0 13 -5 10 -10 -3 -6 0 -10 8 -10 8 0 27 -11
43 -25 33 -29 49 -27 48 4 0 15 4 20 13 17 8 -3 12 -2 8 3 -3 5 1 12 7 14 10
4 10 8 -1 15 -9 7 -10 12 -2 16 6 4 11 1 11 -6 0 -7 11 -1 25 14 14 15 25 31
25 37 0 5 6 11 13 14 9 3 8 8 -3 23 -14 17 -14 18 2 6 18 -14 34 0 22 20 -4 6
-3 8 3 5 15 -9 66 60 57 76 -4 6 -4 9 0 5 12 -11 69 60 62 78 -3 8 -2 12 4 9
10 -6 31 12 71 64 25 32 27 33 50 18 13 -9 74 -28 134 -43 101 -26 126 -28
310 -28 195 -1 202 0 275 27 41 15 85 25 96 22 16 -3 26 2 38 20 18 27 47 32
68 13 21 -19 59 -40 65 -35 2 3 15 -6 28 -19 13 -13 31 -24 40 -24 9 0 14 -4
11 -8 -8 -14 58 -40 130 -53 121 -21 301 4 380 52 17 10 38 19 45 19 26 1 130
56 122 65 -4 4 -2 5 5 1 20 -12 227 108 216 125 -3 5 2 9 11 9 12 0 15 5 11
16 -3 9 -6 19 -6 22 0 4 -7 -4 -16 -16 -8 -12 -29 -29 -45 -37 -17 -9 -27 -21
-23 -27 4 -7 3 -8 -4 -4 -13 8 -73 -24 -67 -35 3 -4 -1 -6 -8 -6 -6 1 -40 -12
-74 -28 -42 -20 -61 -35 -58 -44 4 -10 2 -11 -7 -3 -10 8 -31 3 -78 -18 -36
-16 -71 -30 -77 -30 -7 0 -13 -4 -13 -8 0 -5 -6 -9 -12 -10 -238 -25 -257 -25
-322 -9 -41 10 -91 33 -134 62 -38 25 -76 44 -83 42 -8 -2 -10 -2 -6 1 14 7
-14 31 -30 25 -10 -4 -14 -2 -10 4 3 5 -3 17 -14 27 -13 11 -18 23 -14 34 4 9
16 44 28 77 11 33 25 63 30 66 5 4 40 -5 76 -19 188 -74 527 25 642 186 18 26
35 49 38 52 40 35 111 310 81 310 -6 0 -10 -16 -10 -35 0 -82 -52 -232 -105
-304 -134 -180 -467 -274 -667 -188 -41 17 -50 54 -33 134 8 38 15 78 15 90 0
32 14 37 119 36 93 -1 123 5 191 34 41 18 102 72 94 85 -3 5 0 7 8 6 7 -2 12
3 10 10 -1 6 2 12 7 12 15 0 58 100 65 148 3 23 9 59 12 80 7 42 -12 152 -26
152 -4 0 -6 8 -4 17 6 25 -55 118 -68 105 -12 -12 8 -56 22 -47 6 4 7 -1 3
-11 -4 -11 -2 -15 4 -11 31 19 49 -251 22 -331 -7 -20 -12 -43 -10 -51 1 -8
-2 -10 -10 -5 -9 5 -10 2 -6 -10 4 -9 3 -15 -2 -11 -5 3 -20 -9 -32 -27 -13
-18 -34 -41 -46 -51 -13 -10 -21 -23 -18 -28 4 -5 -1 -6 -9 -3 -8 3 -29 -2
-48 -12 -24 -13 -62 -18 -141 -20 -60 -2 -105 1 -102 6 3 5 1 11 -4 14 -5 3
-9 81 -8 173 0 182 -7 284 -23 313 -6 10 -10 30 -10 44 0 14 -4 26 -10 26 -5
0 -10 -5 -10 -12 0 -6 -3 -9 -6 -6 -3 4 -1 15 5 27 8 15 7 31 -4 64 -20 60
-59 200 -75 269 -7 32 -17 55 -22 52 -4 -3 -8 10 -8 28 0 25 -3 30 -10 18 -8
-11 -10 -6 -9 20 1 34 -14 83 -50 164 -10 23 -27 64 -37 91 -10 28 -44 102
-76 165 l-58 115 22 17 c13 9 39 20 58 23 32 6 72 23 159 70 26 13 30 20 20
27 -11 7 -10 8 4 4 38 -12 137 63 137 103 0 6 4 11 9 11 5 0 13 9 16 21 4 12
18 37 31 56 13 20 24 42 24 50 0 8 9 24 20 36 15 15 19 30 15 47 -4 17 -3 21
4 11 7 -11 11 -10 20 7 15 28 73 190 71 198 -1 4 3 10 8 13 15 9 75 209 68
227 -3 8 -2 13 2 10 13 -8 72 189 65 215 -4 14 -2 20 4 16 17 -11 63 252 65
368 1 91 -2 107 -31 183 -18 45 -37 82 -42 82 -6 0 -8 4 -5 8 3 5 -10 45 -29
89 l-35 80 20 64 c11 35 18 69 16 76 -3 7 0 12 5 10 14 -3 41 71 32 86 -4 6
-1 7 7 2 10 -6 11 -1 6 21 -4 16 -4 26 0 22 9 -10 46 88 45 120 -1 12 3 22 7
22 12 0 35 87 26 101 -4 7 -3 9 3 6 22 -13 31 235 12 308 -6 22 -17 54 -25 72
-8 17 -14 37 -14 44 0 7 -3 10 -6 6 -11 -10 -29 17 -30 45 -2 35 -39 86 -68
94 -15 3 -45 -5 -82 -23 -105 -50 -194 -105 -189 -114 4 -5 -1 -6 -9 -3 -8 3
-30 -6 -49 -20 -19 -14 -39 -26 -45 -26 -7 0 -12 -4 -12 -9 0 -23 24 -21 68 7
26 16 66 40 89 52 24 13 41 26 38 29 -3 2 16 12 42 21 27 10 47 23 45 29 -1 7
1 10 6 7 5 -3 28 2 50 11 48 18 72 12 72 -19 0 -17 3 -19 9 -9 5 8 11 9 15 3
3 -6 2 -13 -3 -17 -12 -7 -6 -24 36 -98 18 -33 33 -67 33 -78 0 -10 3 -19 8
-19 14 0 -7 -268 -29 -352 -28 -107 -126 -380 -140 -389 -5 -3 -14 -21 -19
-40 -8 -28 -6 -42 15 -84 42 -87 75 -163 75 -177 0 -10 3 -9 11 2 8 12 9 12 7
-5 -1 -11 1 -25 5 -31 4 -7 12 -55 19 -108 10 -78 9 -117 -2 -208 -7 -62 -14
-125 -14 -140 -1 -14 -3 -25 -6 -23 -3 2 -19 -50 -36 -115 -17 -66 -26 -116
-21 -113 5 3 0 -7 -11 -23 -12 -16 -24 -40 -26 -54 -9 -42 -43 -152 -64 -207
-14 -37 -16 -55 -9 -62 8 -8 7 -11 -4 -11 -10 0 -21 -16 -28 -42 -16 -53 -51
-118 -64 -118 -5 0 -16 8 -23 18 -12 15 -13 14 -14 -13 0 -17 5 -36 11 -42 12
-12 -14 -79 -53 -135 -21 -31 -23 -42 -5 -33 6 4 1 -2 -12 -13 -14 -11 -21
-24 -17 -31 4 -6 4 -10 -1 -9 -4 1 -21 -10 -38 -26 -16 -15 -44 -35 -62 -45
-17 -9 -62 -32 -100 -52 -37 -19 -89 -41 -115 -48 -26 -8 -45 -17 -43 -22 3
-4 1 -10 -5 -14 -5 -3 -10 0 -10 7 0 9 -3 9 -10 -2 -7 -10 -12 -12 -17 -4 -5
6 -18 14 -29 18 -27 8 -54 -29 -47 -65 7 -36 -13 -48 -106 -61 -44 -6 -81 -15
-81 -20 0 -11 14 -10 86 3 86 16 126 36 119 63 -2 11 -2 16 1 9 3 -7 12 -9 20
-6 8 3 23 -2 32 -10 15 -14 93 -161 113 -212 4 -11 16 -40 27 -65 10 -25 25
-62 31 -83 8 -22 17 -34 23 -31 7 4 8 2 4 -4 -4 -7 11 -65 33 -129 22 -65 43
-137 47 -160 4 -24 10 -43 14 -43 4 0 13 -28 20 -63 6 -34 15 -66 18 -72 4 -5
8 -19 9 -30 2 -11 12 -56 23 -100 35 -145 52 -292 42 -364 -5 -36 -10 -75 -10
-86 -1 -107 -18 -254 -37 -310 -7 -22 -21 -69 -30 -105 -10 -36 -24 -79 -31
-97 -8 -17 -14 -35 -14 -40 0 -30 -119 -89 -228 -112 -68 -14 -282 -14 -375 0
-40 6 -96 22 -125 35 -29 13 -59 24 -68 24 -8 0 -28 7 -45 15 -16 9 -35 13
-41 9 -7 -4 -8 -3 -4 4 4 7 13 12 19 12 7 0 25 14 40 31 29 33 34 45 15 33 -7
-5 -8 -3 -4 5 5 7 10 10 13 8 2 -3 22 11 42 31 25 23 36 43 33 54 -2 10 1 18
7 18 7 0 9 -5 5 -12 -4 -7 18 10 48 37 31 28 54 56 52 63 -2 7 1 10 6 7 17
-11 60 26 60 52 0 43 -39 67 -120 75 -8 0 -17 4 -20 7 -3 4 -39 19 -80 35 -41
15 -86 34 -100 41 -14 7 -43 18 -64 25 -38 12 -76 47 -103 94 -11 19 -12 16
-14 -26 -3 -71 -3 -72 -16 -85 -6 -7 -20 -23 -30 -36 -10 -13 -27 -29 -38 -36
l-20 -13 20 8 c33 11 55 7 119 -25 34 -16 74 -34 89 -40 23 -9 28 -16 25 -38
-2 -21 -23 -42 -87 -91 -85 -64 -269 -176 -393 -240 l-67 -35 -58 22 c-63 23
-100 33 -423 116 -118 31 -267 72 -330 91 -63 20 -168 49 -233 65 -215 53
-538 149 -817 243 -516 175 -660 225 -680 236 -34 18 -27 137 16 311 49 200
94 342 110 355 27 21 145 -17 309 -100 l84 -43 30 25 c17 13 29 27 26 32 -2 4
9 10 26 14 17 3 28 9 25 14 -2 4 12 7 32 6 57 -3 67 3 92 54 13 26 34 64 47
84 26 42 29 56 11 40 -7 -6 -17 -12 -23 -14 -5 -1 -9 -9 -9 -15 1 -7 -2 -13
-7 -13 -5 0 -9 -7 -9 -17 0 -9 -3 -13 -7 -10 -3 4 -16 -10 -27 -30 -16 -28
-30 -39 -56 -45 -42 -9 -110 0 -110 15 0 5 -3 7 -7 4 -3 -4 -12 -2 -19 4 -6 5
-41 18 -76 28 -35 10 -83 28 -107 39 -24 12 -59 24 -78 28 -18 3 -33 11 -34
18 0 6 0 92 1 192 1 179 20 379 36 393 5 4 101 51 214 105 l206 99 3 336 c1
185 -3 491 -9 681 -5 190 -15 683 -21 1095 -6 413 -14 912 -18 1110 -4 198 -4
364 1 370 4 5 8 19 8 32 0 32 -25 30 -190 -16z m40 -265 c0 -42 -4 -55 -17
-61 -17 -7 -190 -55 -338 -95 -38 -10 -110 -33 -160 -50 -49 -18 -129 -45
-176 -61 -48 -17 -95 -36 -105 -44 -17 -13 57 12 211 71 33 12 103 34 155 49
52 15 129 37 170 50 82 26 233 65 250 65 5 0 10 -6 10 -13 0 -8 -35 -22 -92
-36 -51 -13 -147 -41 -213 -62 -66 -21 -158 -47 -204 -59 -103 -26 -204 -66
-225 -88 -13 -15 -13 -32 -6 -112 5 -52 10 -146 10 -208 l0 -113 25 19 c75 59
536 192 666 192 49 0 63 -24 30 -52 l-23 -18 23 -19 23 -18 -30 -30 c-17 -18
-46 -33 -69 -37 -22 -4 -85 -25 -141 -46 -141 -53 -440 -142 -461 -138 -12 2
-18 13 -18 32 0 16 -6 31 -12 33 -18 6 -17 -200 2 -592 20 -417 38 -1286 36
-1740 l-2 -370 -47 -22 c-73 -34 -76 -32 -69 38 3 34 1 118 -5 188 -6 69 -12
416 -12 771 -2 634 -12 956 -42 1287 -15 170 -20 777 -7 976 6 100 7 107 27
107 12 0 68 15 126 34 58 19 220 71 360 116 140 45 273 88 295 95 22 8 43 14
48 14 4 1 7 -23 7 -53z m-105 -253 c-22 -16 -45 -17 -45 -3 0 13 41 30 54 22
5 -3 1 -11 -9 -19z m-160 -23 c6 -9 -33 -30 -56 -30 -18 0 -9 21 14 30 29 12
35 12 42 0z m-174 -45 c0 -13 -60 -25 -67 -14 -6 10 34 29 54 26 7 -1 13 -6
13 -12z m329 -4 c0 -12 -28 -22 -34 -12 -3 5 -3 11 1 15 9 9 33 7 33 -3z
m-499 -41 c-23 -20 -71 -28 -71 -12 0 8 53 28 80 30 10 1 7 -5 -9 -18z m327 4
c-9 -9 -21 -13 -27 -9 -16 10 -3 25 22 25 20 0 20 -1 5 -16z m211 -18 c-11
-10 -69 -17 -69 -8 0 14 53 31 64 21 5 -5 8 -10 5 -13z m-359 -25 c0 -11 -25
-21 -51 -21 -21 0 -26 16 -6 23 21 9 57 7 57 -2z m-195 -11 c-3 -5 -13 -10
-21 -10 -8 0 -12 5 -9 10 3 6 13 10 21 10 8 0 12 -4 9 -10z m355 -5 c0 -8 -9
-15 -20 -15 -25 0 -26 17 -2 23 9 3 18 5 20 6 1 0 2 -6 2 -14z m195 -24 c7
-12 -12 -24 -25 -16 -11 7 -4 25 10 25 5 0 11 -4 15 -9z m-525 -10 c0 -11 -31
-24 -39 -16 -3 3 1 10 9 15 19 12 30 12 30 1z m151 -16 c0 -13 -41 -19 -41 -7
0 11 20 22 33 18 5 -1 8 -6 8 -11z m199 -35 c0 -5 -7 -10 -15 -10 -8 0 -15 5
-15 10 0 6 7 10 15 10 8 0 15 -4 15 -10z m186 -11 c10 -17 -17 -29 -37 -16
-10 6 -15 15 -13 19 8 12 42 10 50 -3z m-376 -8 c0 -11 -39 -25 -47 -18 -3 3
-2 10 2 16 8 13 45 15 45 2z m210 -19 c0 -7 -63 -42 -75 -42 -13 0 -3 30 13
39 21 12 62 14 62 3z m-400 -11 c0 -5 -7 -11 -15 -15 -9 -3 -15 0 -15 9 0 8 7
15 15 15 8 0 15 -4 15 -9z m220 -31 c0 -5 -11 -10 -25 -10 -14 0 -25 5 -25 10
0 6 11 10 25 10 14 0 25 -4 25 -10z m-205 -40 c-3 -5 -10 -10 -16 -10 -5 0 -9
5 -9 10 0 6 7 10 16 10 8 0 12 -4 9 -10z m563 -226 c-18 -19 -76 -35 -83 -24
-6 10 76 49 88 42 5 -2 3 -11 -5 -18z m-158 -43 c0 -9 -34 -21 -60 -21 -11 1
-10 4 4 15 22 16 56 20 56 6z m-175 -31 c3 -5 -11 -16 -31 -25 -44 -18 -57
-19 -52 -2 4 9 34 24 75 36 1 1 5 -3 8 -9z m335 -39 c0 -5 -11 -16 -24 -25
-30 -19 -49 0 -21 21 21 15 45 17 45 4z m-551 -35 c-2 -2 -19 -7 -38 -11 -26
-5 -32 -4 -29 6 5 16 61 29 67 16 1 -4 1 -10 0 -11z m241 -31 c0 -6 -38 -22
-75 -31 -34 -8 -32 12 3 24 30 11 72 15 72 7z m-571 -122 c-1 -84 -2 -86 -10
-38 -8 45 -4 125 7 125 2 0 3 -39 3 -87z m331 57 c0 -8 -51 -40 -65 -40 -3 0
-5 6 -5 14 0 8 12 19 28 24 36 14 42 14 42 2z m540 -5 c-13 -16 -40 -20 -40
-7 0 14 12 22 33 22 16 0 17 -3 7 -15z m-320 -34 c0 -9 -34 -21 -60 -21 -11 1
-10 4 4 15 22 16 56 20 56 6z m316 -56 c-22 -17 -46 -20 -46 -6 0 11 18 19 45
20 20 0 20 0 1 -14z m-536 -4 c0 -12 -49 -43 -62 -39 -6 2 -1 14 12 26 24 22
50 29 50 13z m226 -6 c-19 -14 -66 -21 -66 -10 0 8 42 24 65 24 20 0 20 0 1
-14z m-196 -63 c0 -5 -12 -14 -26 -21 -32 -14 -54 -3 -29 16 21 14 55 18 55 5z
m520 -12 c0 -9 -40 -30 -56 -30 -14 0 0 22 19 30 30 12 37 12 37 0z m-300 -49
c0 -9 -33 -21 -57 -21 -19 0 -15 18 5 23 30 8 52 7 52 -2z m-220 -50 c0 -12
-39 -25 -48 -16 -7 7 17 25 36 25 6 0 12 -4 12 -9z m510 0 c0 -5 -7 -11 -15
-15 -15 -5 -20 5 -8 17 9 10 23 9 23 -2z m-280 -40 c0 -8 -52 -31 -71 -31 -20
0 -7 19 19 28 35 13 52 14 52 3z m316 -66 c-22 -17 -36 -19 -36 -7 0 14 12 22
34 22 21 -1 21 -1 2 -15z m-556 -4 c0 -12 -39 -25 -48 -16 -7 7 17 25 36 25 6
0 12 -4 12 -9z m410 -29 c0 -13 -49 -36 -57 -28 -5 4 1 14 11 22 22 15 46 19
46 6z m-165 -52 c-6 -10 -69 -30 -94 -30 -21 0 -5 13 32 27 40 14 70 16 62 3z
m308 -20 c-13 -13 -63 -23 -63 -13 0 11 52 32 63 25 5 -2 5 -8 0 -12z m-523
-9 c0 -12 -54 -51 -69 -51 -21 0 -11 18 22 39 35 23 47 26 47 12z m390 -42 c0
-16 -71 -42 -83 -30 -7 7 -4 12 9 17 10 3 28 9 39 14 28 12 35 12 35 -1z
m-180 -38 c0 -7 -51 -31 -66 -31 -13 0 -1 29 14 33 30 8 52 7 52 -2z m-210
-69 c0 -9 -44 -32 -60 -32 -18 0 -10 17 13 28 27 13 47 15 47 4z m520 -2 c0
-5 -3 -10 -7 -10 -5 0 -18 -3 -30 -6 -13 -4 -23 -2 -23 4 0 10 19 18 48 21 6
0 12 -3 12 -9z m-150 -30 c0 -9 -62 -40 -81 -40 -20 0 -7 17 24 33 37 18 57
21 57 7z m-160 -60 c0 -11 -38 -28 -82 -37 -43 -9 -33 11 15 29 50 20 67 22
67 8z m-200 -32 c0 -12 -58 -58 -73 -58 -4 0 -7 7 -7 15 0 8 17 23 38 34 45
24 42 24 42 9z m525 -47 c-15 -14 -75 -24 -75 -13 0 12 22 19 60 21 14 1 20
-3 15 -8z m-185 -31 c0 -16 -51 -33 -63 -21 -7 7 -2 14 14 20 32 13 49 13 49
1z m-130 -16 c0 -3 -16 -12 -36 -20 -25 -11 -40 -12 -47 -5 -7 7 -3 13 14 20
27 11 69 14 69 5z m-260 -54 c0 -13 -28 -25 -38 -16 -3 4 0 11 8 16 20 13 30
12 30 0z m540 -9 c0 -12 -39 -25 -48 -16 -7 7 17 25 36 25 6 0 12 -4 12 -9z
m-150 -31 c0 -12 -60 -43 -68 -35 -8 8 38 44 56 45 6 0 12 -4 12 -10z m-150
-35 c0 -9 -9 -15 -25 -15 -29 0 -34 16 -7 23 30 8 32 7 32 -8z m-215 -35 c-19
-21 -45 -27 -45 -10 0 11 30 29 49 30 11 0 10 -5 -4 -20z m495 -9 c0 -13 -28
-22 -35 -11 -3 4 1 11 7 13 20 8 28 8 28 -2z m-130 -50 c0 -11 -39 -25 -47
-18 -3 3 -2 10 2 16 8 13 45 15 45 2z m-140 -15 c0 -14 -56 -33 -67 -23 -5 5
45 36 60 37 4 0 7 -6 7 -14z m-190 -35 c0 -11 -79 -45 -87 -38 -7 8 -9 7 37
34 32 20 50 22 50 4z m469 -72 c-18 -11 -39 -11 -39 0 0 11 31 20 44 13 4 -2
2 -8 -5 -13z m-158 -50 c-22 -18 -41 -18 -41 1 0 10 52 30 60 23 3 -3 -6 -13
-19 -24z m-126 -16 c-11 -7 -27 -13 -37 -13 -10 0 -20 0 -23 0 -17 0 1 17 28
26 39 14 57 6 32 -13z m-215 -48 c0 -2 -12 -16 -26 -30 -21 -21 -29 -24 -35
-13 -6 9 -2 19 12 31 19 16 49 23 49 12z m380 -30 c0 -6 -57 -35 -70 -35 -19
0 -10 20 13 30 24 10 57 13 57 5z m-160 -25 c0 -12 -48 -25 -58 -16 -8 9 18
26 41 26 9 0 17 -4 17 -10z m-220 -60 c0 -5 -9 -10 -21 -10 -11 0 -17 5 -14
10 3 6 13 10 21 10 8 0 14 -4 14 -10z m339 -101 c-20 -13 -29 -11 -29 5 0 16
33 27 39 13 2 -5 -3 -13 -10 -18z m-129 1 c0 -9 -40 -30 -56 -30 -13 0 -1 29
14 33 30 8 42 7 42 -3z m-530 -41 c0 -24 -4 -38 -10 -34 -17 10 -11 75 7 75 2
0 3 -18 3 -41z m340 -7 c0 -13 -69 -42 -75 -32 -3 5 7 16 22 24 31 17 53 20
53 8z m185 -32 c3 -6 -1 -13 -10 -16 -19 -8 -30 0 -20 15 8 14 22 14 30 1z
m135 -10 c0 -12 -40 -33 -48 -25 -4 4 2 13 12 21 23 16 36 18 36 4z m-310 -45
c-23 -25 -50 -33 -50 -16 0 11 41 40 59 40 10 1 7 -7 -9 -24z m340 -84 c0 -12
-39 -25 -48 -16 -7 7 17 25 36 25 6 0 12 -4 12 -9z m-140 -10 c0 -14 -48 -42
-55 -32 -3 5 5 17 17 25 25 18 38 20 38 7z m-190 -58 c0 -12 -33 -43 -47 -43
-20 0 -16 17 9 34 24 17 38 20 38 9z m335 -33 c3 -6 -6 -15 -20 -20 -34 -13
-35 -13 -35 4 0 22 43 35 55 16z m-131 -34 c-8 -21 -74 -36 -74 -17 0 9 44 29
67 30 7 1 10 -5 7 -13z m321 -26 c3 -5 -11 -16 -31 -25 -44 -18 -44 -18 -44
-1 0 7 15 18 33 24 17 5 33 10 34 11 1 1 5 -3 8 -9z m-544 -61 c-25 -21 -41
-24 -41 -9 0 11 53 41 60 33 3 -2 -6 -13 -19 -24z m369 11 c0 -9 -40 -30 -56
-30 -14 0 0 22 19 30 30 12 37 12 37 0z m-130 -39 c0 -10 -45 -41 -59 -41 -17
0 -1 27 22 38 28 13 37 14 37 3z m280 -40 c0 -11 -59 -25 -68 -16 -3 3 0 10 8
15 19 12 60 13 60 1z m-480 -10 c0 -10 -45 -41 -60 -41 -20 0 -10 19 18 34 32
18 42 19 42 7z m334 -20 c3 -5 -1 -12 -10 -15 -27 -11 -37 -7 -24 9 14 17 26
19 34 6z m-149 -31 c3 -5 -8 -16 -25 -25 -35 -18 -41 -4 -8 19 26 19 25 19 33
6z m275 -29 c0 -11 -39 -25 -47 -18 -3 3 -2 10 2 16 8 13 45 15 45 2z m-459
-44 c-13 -13 -26 -3 -16 12 3 6 11 8 17 5 6 -4 6 -10 -1 -17z m309 3 c0 -5 -7
-10 -16 -10 -8 0 -12 5 -9 10 3 6 10 10 16 10 5 0 9 -4 9 -10z m203 -30 c-14
-14 -73 -22 -73 -11 0 6 15 14 33 19 34 9 55 5 40 -8z m-293 -8 c0 -7 -63 -42
-75 -42 -15 0 -1 22 23 34 30 17 52 20 52 8z m72 -44 c-6 -6 -15 -8 -19 -4 -4
4 -1 11 7 16 19 12 27 3 12 -12z m-328 -45 c-34 -25 -51 -14 -19 14 20 18 30
22 33 13 3 -7 -3 -19 -14 -27z m246 8 c0 -15 -42 -41 -53 -34 -6 4 0 14 12 25
25 20 41 23 41 9z m-190 -45 c0 -13 -57 -56 -74 -56 -16 0 -2 19 31 43 44 31
43 31 43 13z m90 -660 c0 -3 -4 -8 -10 -11 -5 -3 -10 -1 -10 4 0 6 5 11 10 11
6 0 10 -2 10 -4z m51 -24 c-7 -2 -18 1 -23 6 -8 8 -4 9 13 5 13 -4 18 -8 10
-11z m289 -112 c8 -5 11 -10 5 -10 -5 0 -17 5 -25 10 -8 5 -10 10 -5 10 6 0
17 -5 25 -10z m45 -10 c3 -5 1 -10 -4 -10 -6 0 -11 5 -11 10 0 6 2 10 4 10 3
0 8 -4 11 -10z m219 -25 c-4 -8 -10 -12 -15 -9 -11 6 -2 24 11 24 5 0 7 -7 4
-15z m-1275 -690 c0 -5 -4 -3 -9 5 -5 8 -9 22 -9 30 0 16 17 -16 18 -35z m205
-234 c4 -5 -3 -7 -14 -4 -23 6 -26 13 -6 13 8 0 17 -4 20 -9z m683 -177 c-3
-3 -12 -4 -19 -1 -8 3 -5 6 6 6 11 1 17 -2 13 -5z m3740 -56 c-3 -8 -6 -5 -6
6 -1 11 2 17 5 13 3 -3 4 -12 1 -19z m-3440 -34 c-3 -3 -12 -4 -19 -1 -8 3 -5
6 6 6 11 1 17 -2 13 -5z m360 -100 c-3 -3 -12 -4 -19 -1 -8 3 -5 6 6 6 11 1
17 -2 13 -5z m410 -110 c-3 -3 -12 -4 -19 -1 -8 3 -5 6 6 6 11 1 17 -2 13 -5z
m1693 2 c0 -3 -4 -8 -10 -11 -5 -3 -10 -1 -10 4 0 6 5 11 10 11 6 0 10 -2 10
-4z m147 -52 c-3 -3 -12 -4 -19 -1 -8 3 -5 6 6 6 11 1 17 -2 13 -5z m-1534
-31 c-7 -2 -19 -2 -25 0 -7 3 -2 5 12 5 14 0 19 -2 13 -5z m262 -91 c-3 -3
-11 0 -18 7 -9 10 -8 11 6 5 10 -3 15 -9 12 -12z m292 -105 c4 -7 0 -8 -11 -4
-10 4 -24 7 -32 7 -9 0 -13 4 -10 9 7 11 44 3 53 -12z m178 -52 c39 -17 21
-18 -25 0 -19 7 -28 14 -20 14 8 0 29 -6 45 -14z m372 -37 c-3 -8 -6 -5 -6 6
-1 11 2 17 5 13 3 -3 4 -12 1 -19z m-78 -64 c4 3 7 -4 7 -15 0 -10 -3 -19 -7
-19 -8 0 -19 39 -18 60 1 8 4 5 6 -8 2 -12 8 -20 12 -18z"/>
<path d="M2110 5790 c-8 -5 -12 -11 -9 -14 7 -8 49 5 49 15 0 12 -21 11 -40
-1z"/>
<path d="M2100 5670 c0 -5 4 -10 9 -10 6 0 13 5 16 10 3 6 -1 10 -9 10 -9 0
-16 -4 -16 -10z"/>
<path d="M2105 5570 c-3 -5 1 -10 9 -10 8 0 18 5 21 10 3 6 -1 10 -9 10 -8 0
-18 -4 -21 -10z"/>
<path d="M2098 5483 c6 -2 18 -2 25 0 6 3 1 5 -13 5 -14 0 -19 -2 -12 -5z"/>
<path d="M2090 5390 c-12 -8 -9 -10 13 -10 15 0 27 5 27 10 0 13 -20 13 -40 0z"/>
<path d="M2130 5270 c0 -5 5 -10 10 -10 6 0 10 5 10 10 0 6 -4 10 -10 10 -5 0
-10 -4 -10 -10z"/>
<path d="M2110 5190 c-12 -8 -11 -10 7 -10 12 0 25 5 28 10 8 13 -15 13 -35 0z"/>
<path d="M2130 5110 c0 -5 7 -10 16 -10 8 0 12 5 9 10 -3 6 -10 10 -16 10 -5
0 -9 -4 -9 -10z"/>
<path d="M4094 5933 c-9 -6 -9 -75 -3 -268 5 -143 12 -267 16 -275 3 -8 8 -33
10 -54 1 -22 8 -43 14 -47 8 -4 8 -8 1 -10 -8 -3 -8 -17 -1 -48 7 -30 6 -47
-2 -57 -6 -7 -7 -19 -3 -25 4 -7 3 -9 -3 -6 -6 4 -14 0 -17 -9 -3 -8 -2 -12 4
-9 6 3 10 2 10 -4 0 -5 -9 -12 -19 -16 -18 -5 -29 -24 -32 -50 0 -5 -7 -14
-15 -18 -8 -4 -14 -13 -14 -18 0 -6 -8 -23 -18 -37 -10 -15 -33 -65 -52 -112
-18 -47 -37 -90 -42 -97 -5 -7 -7 -16 -4 -22 4 -5 0 -15 -7 -23 -21 -22 -78
-158 -71 -170 4 -7 2 -8 -4 -4 -8 5 -12 0 -12 -13 0 -12 -4 -21 -9 -21 -5 0
-11 -9 -14 -20 -6 -23 -3 -24 24 -10 10 6 19 16 19 23 0 7 8 31 19 53 10 21
25 55 34 74 21 49 77 178 94 220 9 19 28 60 43 90 15 30 25 62 22 70 -3 8 -1
11 4 7 9 -8 38 35 86 128 24 47 28 63 19 77 -6 10 -16 53 -22 95 -6 43 -13 81
-15 85 -5 8 -12 146 -16 338 l-3 145 26 3 c14 2 46 -5 70 -14 24 -9 56 -17 71
-17 18 0 25 -4 21 -13 -3 -8 0 -14 7 -14 11 0 70 -32 184 -98 15 -9 55 -42 88
-72 33 -30 65 -54 70 -52 5 1 7 -1 4 -6 -7 -12 68 -84 78 -75 4 4 4 0 1 -9 -4
-10 1 -21 12 -29 11 -8 34 -35 52 -61 19 -26 37 -45 42 -43 4 3 5 -3 3 -12 -2
-10 0 -24 5 -32 8 -13 29 -12 148 8 76 13 179 30 228 38 50 8 169 15 265 16
178 2 190 0 295 -43 11 -5 31 -12 45 -15 30 -9 85 -31 123 -51 15 -9 32 -12
37 -9 6 3 10 2 10 -3 0 -9 71 -47 83 -44 5 2 5 -3 1 -9 -3 -6 0 -15 7 -20 11
-7 11 -9 1 -9 -7 0 -10 -4 -7 -10 3 -5 10 -10 14 -10 12 0 71 89 62 95 -5 2
-14 -2 -21 -10 -18 -21 -35 -19 -80 11 -21 14 -50 27 -64 28 -13 0 -22 4 -19
9 2 4 -9 10 -26 13 -17 4 -31 10 -31 14 0 4 -10 10 -22 13 -58 14 -144 49
-154 62 -7 10 -18 13 -29 8 -13 -4 -16 -3 -11 5 9 15 -237 16 -364 2 -162 -18
-255 -31 -285 -40 -16 -5 -54 -12 -84 -15 -29 -3 -56 -7 -60 -7 -17 -5 -51 15
-56 33 -4 10 -10 19 -15 19 -5 0 -11 8 -14 18 -10 30 -54 74 -67 66 -8 -4 -9
-3 -5 4 7 12 -22 61 -37 62 -5 0 -5 -5 -1 -12 4 -7 3 -8 -4 -4 -7 4 -12 14
-12 23 0 18 -79 95 -90 88 -4 -2 -16 2 -26 11 -18 14 -18 15 4 4 12 -6 22 -7
22 -2 0 5 -15 17 -32 26 -18 8 -29 16 -24 16 6 0 1 6 -9 14 -11 8 -25 11 -32
9 -8 -3 -13 0 -11 8 2 8 -5 13 -15 12 -10 0 -16 2 -13 5 10 9 -33 34 -46 26
-6 -4 -8 -3 -5 3 6 10 -147 93 -170 93 -6 0 -23 7 -39 14 -36 19 -105 29 -120
19z m-103 -1056 c-10 -9 -11 -8 -5 6 3 10 9 15 12 12 3 -3 0 -11 -7 -18z"/>
<path d="M4300 5608 c2 -45 47 -316 55 -330 10 -16 17 -17 73 -7 34 6 60 15
57 19 -3 4 -22 4 -42 -1 -47 -11 -55 -11 -71 -1 -7 5 -22 65 -33 136 -18 112
-19 130 -6 143 12 12 16 12 28 1 72 -68 180 -160 184 -156 8 8 -215 208 -231
208 -8 0 -14 -6 -14 -12z"/>
<path d="M1763 5555 c-17 -7 -119 -45 -227 -84 -107 -40 -241 -92 -298 -117
-57 -26 -146 -62 -198 -81 -120 -44 -459 -166 -565 -203 -44 -15 -152 -57
-240 -93 -88 -35 -177 -70 -197 -77 -38 -11 -38 -12 -38 -66 0 -67 -12 -69
192 28 138 66 261 113 548 213 l125 43 3 -71 c2 -38 1 -76 -2 -83 -7 -18 -149
-88 -240 -119 -42 -14 -142 -52 -223 -84 -141 -55 -268 -98 -360 -121 l-43
-11 0 -1495 0 -1495 28 15 c15 8 62 39 104 69 42 30 87 58 100 62 13 4 30 15
39 24 8 9 45 34 82 55 37 22 149 101 250 176 282 210 369 268 391 260 17 -6
12 -13 -36 -48 -31 -23 -96 -67 -144 -98 -49 -32 -130 -88 -179 -124 -50 -36
-146 -104 -215 -150 -134 -89 -247 -171 -320 -231 -25 -21 -57 -42 -72 -48
-27 -10 -28 -12 -28 -91 l0 -80 82 57 c46 31 116 82 156 112 40 31 83 63 95
71 108 73 247 172 372 265 152 113 269 195 279 195 4 0 7 -71 8 -157 l2 -158
3 140 c3 161 7 185 30 185 15 0 16 -19 11 -192 -3 -106 -3 -232 1 -281 l6 -87
91 68 c50 37 104 83 120 102 l29 34 -2 258 c-2 206 0 258 11 258 15 0 26 -158
26 -365 0 -139 1 -141 86 -169 71 -23 176 -88 194 -119 14 -26 13 -28 -35 -78
-28 -28 -82 -78 -122 -110 -40 -33 -104 -90 -143 -126 -40 -37 -95 -83 -123
-102 -29 -19 -58 -41 -65 -48 -25 -24 -69 -15 -106 22 -43 42 -106 172 -106
217 0 52 35 164 62 200 32 43 41 68 24 68 -20 0 -73 -72 -112 -152 -32 -66
-35 -79 -30 -132 6 -62 8 -66 98 -199 49 -74 61 -85 93 -91 29 -6 46 -2 83 20
44 25 143 95 168 119 16 15 63 56 194 171 204 179 192 162 161 222 -40 78 -89
113 -226 157 l-70 23 -7 84 c-3 45 -7 133 -7 193 -1 61 -6 139 -11 175 -12 79
-21 69 177 189 144 86 243 147 353 214 36 22 70 47 76 56 14 19 10 674 -6 929
-6 90 -10 256 -10 370 0 114 -4 293 -10 397 -17 312 -39 769 -45 935 -4 85 -8
165 -11 178 -5 26 -32 28 -81 7z m-33 -136 c0 -11 5 -29 10 -39 7 -13 7 -21 0
-25 -6 -3 -8 -16 -5 -28 3 -12 2 -27 -2 -33 -5 -7 -87 -40 -183 -74 -96 -34
-204 -77 -240 -95 -36 -17 -117 -51 -180 -74 -63 -22 -136 -52 -163 -66 -26
-14 -49 -25 -52 -25 -3 0 -5 13 -5 29 0 16 -5 31 -11 33 -11 4 -5 34 21 103 5
14 36 30 106 54 55 19 167 63 249 98 135 58 189 80 360 144 68 25 95 25 95 -2z
m19 -509 c7 -190 17 -469 22 -620 5 -151 14 -410 20 -575 6 -165 13 -433 16
-596 l5 -296 -134 -88 c-73 -49 -162 -107 -198 -131 -36 -23 -146 -95 -245
-160 -99 -66 -183 -120 -187 -122 -5 -2 -8 65 -8 148 0 136 -6 237 -40 620 -5
63 -14 223 -20 355 -6 132 -17 344 -25 470 -15 235 -33 611 -41 880 l-5 150
48 22 c26 12 93 38 148 58 55 20 141 55 190 77 114 53 428 167 436 159 4 -3
12 -161 18 -351z m-1183 -282 c11 -18 -31 -45 -83 -53 -27 -4 -56 -15 -66 -26
-10 -11 -31 -19 -50 -19 -18 0 -56 -11 -85 -25 -30 -14 -64 -25 -77 -25 -28 0
-42 28 -17 36 9 3 43 17 75 30 32 13 74 24 93 24 19 0 34 5 34 10 0 6 9 10 21
10 11 0 30 6 42 12 59 33 103 43 113 26z m-421 -148 c11 -18 -16 -41 -43 -38
-34 4 -40 26 -10 37 31 13 46 13 53 1z m261 -71 c12 -20 -22 -40 -72 -42 -62
-2 -67 21 -9 39 52 16 72 16 81 3z m404 -26 c-1 -18 -18 -30 -69 -46 -29 -9
-57 -14 -62 -11 -20 12 -7 32 29 47 39 16 102 22 102 10z m-614 -45 c10 -17
-33 -48 -67 -48 -40 0 -38 26 4 44 40 18 54 19 63 4z m444 -1 c0 -31 -51 -50
-66 -25 -8 13 22 38 48 38 10 0 18 -6 18 -13z m-90 -41 c0 -8 -15 -17 -36 -21
-40 -7 -49 -3 -41 20 8 20 77 21 77 1z m-150 -46 c0 -12 -17 -22 -60 -37 -29
-10 -37 -10 -50 3 -13 13 -13 16 0 24 8 5 24 10 35 10 11 0 26 4 34 9 15 10
41 4 41 -9z m408 -48 c5 -17 -67 -47 -81 -33 -15 15 -1 39 25 44 34 7 51 3 56
-11z m-594 -1 c9 -14 -59 -61 -89 -61 -8 0 -15 8 -15 18 0 29 90 67 104 43z
m436 -66 c0 -9 -8 -18 -17 -21 -10 -3 -25 -9 -34 -14 -9 -5 -37 -12 -64 -15
-42 -7 -47 -6 -43 11 2 13 17 22 50 29 25 5 50 13 54 18 14 13 54 8 54 -8z
m-190 -65 c0 -5 -4 -10 -10 -10 -5 0 -10 5 -10 10 0 6 5 10 10 10 6 0 10 -4
10 -10z m-75 -20 c0 -8 -10 -16 -22 -18 -13 -2 -23 -8 -23 -13 0 -5 -11 -9
-24 -9 -13 0 -30 -10 -38 -22 -9 -14 -20 -19 -31 -15 -28 10 -20 37 12 43 17
4 32 12 35 20 3 8 17 14 31 14 14 0 25 5 25 11 0 6 8 9 18 7 9 -2 17 -10 17
-18z m-218 -77 c5 -14 -47 -43 -77 -43 -32 0 -24 29 13 45 36 16 58 16 64 -2z
m453 -43 c0 -16 -49 -43 -66 -36 -24 9 -11 30 22 37 43 10 44 10 44 -1z m-100
-25 c0 -8 -9 -15 -20 -15 -20 0 -26 11 -13 23 12 13 33 7 33 -8z m-112 -43 c2
-7 -12 -19 -33 -28 -60 -25 -91 1 -37 30 31 18 64 17 70 -2z m-120 -45 c3 -15
-2 -18 -29 -15 -18 2 -35 9 -37 17 -3 8 0 11 6 7 6 -3 14 -2 17 4 10 17 39 7
43 -13z m-98 -32 c0 -9 -10 -19 -23 -24 -13 -5 -29 -16 -36 -25 -16 -19 -51
-21 -51 -3 1 21 34 55 60 60 45 8 50 7 50 -8z m646 -107 c4 -6 3 -13 -3 -15
-6 -2 -23 -15 -37 -28 -32 -30 -63 -40 -80 -26 -10 8 -17 7 -26 -4 -18 -22
-50 -19 -50 4 0 21 22 33 44 25 7 -3 16 2 19 10 4 9 18 16 32 16 15 0 33 7 41
15 18 18 50 20 60 3z m-549 -43 c7 -20 -2 -29 -21 -22 -9 4 -13 13 -10 22 8
19 23 19 31 0z m-112 -50 c0 -20 -46 -41 -70 -31 -24 9 -17 26 18 41 39 17 52
14 52 -10z m443 -13 c-4 -22 -78 -27 -78 -6 0 8 9 14 19 14 11 0 22 4 26 10 9
14 36 0 33 -18z m-102 -24 c8 -12 -22 -38 -43 -38 -20 0 -28 30 -12 41 20 12
47 11 55 -3z m-136 -62 c0 -19 -73 -56 -111 -56 -24 0 -30 4 -27 18 2 12 13
17 37 18 20 1 37 8 43 18 11 20 58 22 58 2z m425 -55 c8 -14 -24 -41 -55 -48
-16 -3 -30 -13 -33 -24 -4 -13 -14 -19 -36 -19 -41 0 -42 27 -1 41 17 6 30 15
30 20 0 9 55 37 77 38 6 1 14 -3 18 -8z m-587 -18 c-3 -18 -53 -42 -64 -31 -9
10 29 46 49 47 12 1 17 -5 15 -16z m-90 -39 c-5 -25 -35 -41 -49 -27 -9 9 -9
16 1 28 17 21 52 20 48 -1z m417 -33 c13 -23 -97 -83 -116 -64 -12 12 -3 23
46 53 33 21 61 25 70 11z m-147 -88 c5 -17 -26 -29 -40 -15 -6 6 -7 15 -3 22
9 14 37 9 43 -7z m-71 -19 c3 -9 0 -20 -8 -25 -17 -11 -21 -11 -38 0 -12 8
-12 12 -2 25 17 21 40 20 48 0z m-110 -78 c-8 -20 -47 -21 -47 -1 0 18 32 37
44 25 5 -5 6 -16 3 -24z m-87 -29 c0 -20 -22 -37 -47 -37 -27 0 -31 24 -5 39
24 15 52 13 52 -2z m190 -127 c0 -5 -7 -10 -16 -10 -8 0 -12 5 -9 10 3 6 10
10 16 10 5 0 9 -4 9 -10z m30 0 c0 -5 -4 -10 -10 -10 -5 0 -10 5 -10 10 0 6 5
10 10 10 6 0 10 -4 10 -10z m-80 -29 c0 -25 -45 -61 -76 -61 -36 0 -29 29 11
46 19 8 35 19 35 24 0 6 7 10 15 10 8 0 15 -9 15 -19z m470 -6 c0 -20 -59 -50
-73 -36 -7 7 -5 16 8 31 21 23 65 27 65 5z m-93 -42 c5 -14 -53 -53 -79 -53
-29 0 -21 26 15 49 34 22 58 24 64 4z m-537 -43 c0 -13 -7 -20 -20 -20 -19 0
-27 20 -13 33 13 14 33 6 33 -13z m430 -28 c0 -19 -46 -44 -102 -56 -19 -4
-28 -13 -28 -25 0 -19 -25 -31 -47 -24 -15 5 -18 33 -4 33 5 0 16 6 23 14 22
22 122 76 141 76 10 0 17 -8 17 -18z m-222 -114 c2 -10 -15 -21 -57 -35 -33
-12 -62 -18 -65 -15 -16 15 -2 32 32 42 20 5 44 14 52 20 19 12 34 8 38 -12z
m-148 -43 c0 -3 -10 -19 -22 -35 -24 -34 -72 -43 -66 -13 4 24 88 69 88 48z
m380 -39 c0 -17 -46 -56 -66 -56 -25 0 -24 19 3 44 30 28 63 34 63 12z m-140
-91 c0 -9 -12 -21 -27 -28 -15 -6 -38 -22 -52 -35 -29 -26 -86 -28 -86 -2 0
10 19 19 57 28 40 10 58 19 61 33 6 23 47 26 47 4z m387 -32 c6 -17 -56 -53
-89 -53 -41 0 -34 23 15 48 45 23 68 24 74 5z m-547 -68 c0 -12 -28 -35 -44
-35 -11 0 -6 19 10 34 19 20 34 20 34 1z m400 -15 c0 -13 -11 -24 -33 -34 -18
-7 -53 -26 -76 -40 -56 -35 -92 -27 -46 10 39 32 127 83 143 84 6 0 12 -9 12
-20z m-495 -30 c0 -19 -48 -45 -68 -37 -21 8 -13 31 16 45 29 14 52 11 52 -8z
m275 -89 c0 -19 -18 -31 -46 -31 -20 0 -17 27 4 39 26 16 42 13 42 -8z m-105
-60 c0 -8 -12 -23 -27 -34 -23 -17 -30 -18 -43 -7 -14 12 -13 16 12 36 30 25
58 27 58 5z m-175 -96 c0 -16 -30 -35 -54 -35 -22 0 -20 37 2 43 35 9 52 7 52
-8z"/>
<path d="M1195 5120 c-3 -5 -2 -10 4 -10 5 0 13 5 16 10 3 6 2 10 -4 10 -5 0
-13 -4 -16 -10z"/>
<path d="M1097 5113 c-4 -3 -7 -17 -7 -30 0 -33 24 -24 28 10 3 26 -7 35 -21
20z"/>
<path d="M1160 5100 c0 -5 5 -10 11 -10 5 0 7 5 4 10 -3 6 -8 10 -11 10 -2 0
-4 -4 -4 -10z"/>
<path d="M1052 5080 c-9 -15 -21 -20 -45 -18 -18 1 -42 -5 -53 -13 -21 -16
-31 -49 -14 -49 6 0 8 5 4 12 -5 7 -2 9 8 5 9 -3 25 1 37 10 12 8 29 12 37 9
8 -3 12 -2 9 3 -3 5 -1 12 5 16 5 3 10 1 10 -6 0 -9 3 -10 11 -2 6 6 9 20 7
32 l-3 22 -13 -21z m-62 -34 c0 -2 -9 -6 -20 -9 -11 -3 -18 -1 -14 4 5 9 34
13 34 5z"/>
<path d="M1403 4533 c-20 -7 -16 -53 4 -53 9 0 40 -12 69 -26 90 -44 123 -15
57 49 -31 31 -44 37 -78 36 -22 0 -46 -3 -52 -6z"/>
<path d="M1283 4520 c-38 -9 -104 -59 -122 -94 -11 -21 -12 -28 -1 -41 18 -22
26 -19 49 21 15 24 38 43 77 61 37 17 54 30 52 41 -4 19 -15 22 -55 12z"/>
<path d="M1390 4413 c0 -3 7 -11 15 -19 13 -14 15 -13 15 4 0 10 -7 19 -15 19
-8 0 -15 -2 -15 -4z"/>
<path d="M1607 4413 c-15 -14 -6 -71 14 -94 12 -13 25 -34 30 -46 6 -16 17
-23 34 -23 31 0 31 13 6 81 -28 72 -61 105 -84 82z"/>
<path d="M1430 4390 c0 -5 5 -10 11 -10 5 0 7 5 4 10 -3 6 -8 10 -11 10 -2 0
-4 -4 -4 -10z"/>
<path d="M1475 4370 c3 -5 8 -10 11 -10 2 0 4 5 4 10 0 6 -5 10 -11 10 -5 0
-7 -4 -4 -10z"/>
<path d="M1276 4354 c-11 -8 -16 -14 -10 -14 13 0 39 18 34 24 -3 2 -14 -2
-24 -10z"/>
<path d="M1325 4360 c3 -5 8 -10 11 -10 2 0 4 5 4 10 0 6 -5 10 -11 10 -5 0
-7 -4 -4 -10z"/>
<path d="M1114 4328 c-24 -11 -69 -94 -79 -145 -9 -46 2 -75 27 -71 16 2 26
19 43 70 12 37 31 78 43 91 12 13 22 28 22 35 0 19 -33 30 -56 20z"/>
<path d="M1400 4286 c0 -9 30 -14 35 -6 4 6 -3 10 -14 10 -12 0 -21 -2 -21 -4z"/>
<path d="M1561 4274 c0 -11 3 -14 6 -6 3 7 2 16 -1 19 -3 4 -6 -2 -5 -13z"/>
<path d="M1187 4253 c-4 -3 -7 -12 -7 -20 0 -11 4 -11 20 -3 11 6 18 15 15 21
-7 11 -19 12 -28 2z"/>
<path d="M1266 4187 c3 -10 9 -15 12 -12 3 3 0 11 -7 18 -10 9 -11 8 -5 -6z"/>
<path d="M1146 4144 c-4 -11 -1 -14 11 -12 9 2 18 9 21 16 6 18 -25 15 -32 -4z"/>
<path d="M1241 4142 c-13 -25 -14 -32 -2 -32 9 0 23 41 16 48 -2 2 -8 -5 -14
-16z"/>
<path d="M1021 4049 c-20 -18 -21 -29 -19 -107 l3 -87 30 0 30 0 5 90 c3 50 4
95 2 102 -6 21 -29 22 -51 2z"/>
<path d="M1140 4012 c0 -14 11 -21 26 -15 8 3 11 9 8 14 -7 11 -34 12 -34 1z"/>
<path d="M1620 4001 c0 -5 5 -13 10 -16 6 -3 10 -2 10 4 0 5 -4 13 -10 16 -5
3 -10 2 -10 -4z"/>
<path d="M1150 3975 c-10 -12 -9 -16 5 -21 17 -7 17 -8 -1 -21 -17 -12 -17
-13 4 -13 15 0 22 6 22 20 0 11 -5 20 -11 20 -8 0 -8 5 1 15 7 8 8 15 2 15 -5
0 -15 -7 -22 -15z"/>
<path d="M1441 3964 c0 -11 3 -14 6 -6 3 7 2 16 -1 19 -3 4 -6 -2 -5 -13z"/>
<path d="M1246 3962 c-2 -4 -1 -14 5 -22 7 -12 9 -10 9 8 0 23 -5 28 -14 14z"/>
<path d="M1236 3901 c-4 -7 -5 -15 -2 -18 9 -9 19 4 14 18 -4 11 -6 11 -12 0z"/>
<path d="M1140 3885 c0 -8 6 -15 13 -15 8 0 14 7 14 15 0 8 -6 15 -14 15 -7 0
-13 -7 -13 -15z"/>
<path d="M1548 3790 c-7 -24 -3 -38 8 -28 3 4 4 17 2 30 l-3 23 -7 -25z"/>
<path d="M1166 3781 c-7 -11 22 -23 35 -15 5 3 7 10 4 15 -8 12 -32 12 -39 0z"/>
<path d="M1210 3752 c0 -7 5 -22 11 -34 14 -26 4 -35 -18 -17 -16 12 -17 12
-6 -2 7 -9 9 -20 5 -24 -4 -5 1 -5 11 -2 10 4 21 7 23 7 2 0 4 10 4 23 0 24
-29 72 -30 49z"/>
<path d="M1175 3740 c-3 -6 1 -7 9 -4 18 7 21 14 7 14 -6 0 -13 -4 -16 -10z"/>
<path d="M1610 3686 c0 -2 7 -7 16 -10 8 -3 12 -2 9 4 -6 10 -25 14 -25 6z"/>
<path d="M1225 3650 c-3 -5 -1 -10 4 -10 6 0 11 5 11 10 0 6 -2 10 -4 10 -3 0
-8 -4 -11 -10z"/>
<path d="M1543 3618 c4 -13 2 -15 -10 -11 -10 4 -14 2 -11 -7 2 -8 9 -15 15
-17 16 -6 26 29 12 41 -9 8 -10 7 -6 -6z"/>
<path d="M1370 3600 c-13 -8 -12 -10 3 -10 9 0 17 5 17 10 0 12 -1 12 -20 0z"/>
<path d="M1270 3588 c0 -4 4 -8 9 -8 6 0 12 4 15 8 3 5 -1 9 -9 9 -8 0 -15 -4
-15 -9z"/>
<path d="M1606 3564 c-23 -23 -20 -30 4 -9 11 10 20 20 20 22 0 7 -9 2 -24
-13z"/>
<path d="M1430 3560 c0 -5 9 -10 20 -10 11 0 20 -4 20 -10 0 -5 5 -10 10 -10
16 0 11 27 -6 34 -24 9 -44 7 -44 -4z"/>
<path d="M1310 3524 c0 -8 5 -12 10 -9 6 3 10 10 10 16 0 5 -4 9 -10 9 -5 0
-10 -7 -10 -16z"/>
<path d="M1558 3478 c9 -9 15 -9 24 0 9 9 7 12 -12 12 -19 0 -21 -3 -12 -12z"/>
<path d="M1387 3473 c-13 -12 -7 -19 18 -21 13 -1 27 4 31 10 5 8 2 9 -11 4
-10 -4 -21 -2 -25 4 -3 6 -9 7 -13 3z"/>
<path d="M6420 5515 c-19 -13 -39 -28 -45 -32 -5 -5 -28 -22 -50 -38 -22 -17
-49 -39 -61 -50 -11 -11 -39 -37 -63 -58 -36 -33 -46 -57 -23 -57 4 0 43 34
87 75 44 41 110 93 147 117 62 40 76 58 52 64 -5 2 -25 -8 -44 -21z"/>
<path d="M4560 5404 c0 -5 7 -20 16 -33 20 -28 8 -44 -46 -60 -34 -10 -34 -10
10 -5 75 10 88 34 45 80 -14 15 -25 23 -25 18z"/>
<path d="M6542 5290 c-23 -16 -46 -30 -50 -30 -11 0 -62 -54 -62 -65 0 -5 12
3 28 16 15 14 47 41 71 59 42 32 44 33 57 15 8 -10 14 -33 14 -51 0 -18 5 -36
10 -39 12 -8 12 17 1 69 -14 57 -22 60 -69 26z"/>
<path d="M6404 5192 c4 -7 4 -12 -1 -12 -4 0 -26 -17 -48 -36 -22 -20 -47 -41
-57 -48 -10 -7 -24 -28 -32 -47 l-15 -35 55 -39 c30 -22 54 -42 54 -45 0 -6
123 -80 132 -80 7 0 58 85 58 96 0 4 -13 -12 -30 -34 -28 -39 -31 -41 -57 -30
-25 11 -62 36 -117 78 -41 32 -66 60 -66 74 0 9 32 46 71 84 50 49 67 72 59
77 -9 5 -11 4 -6 -3z"/>
<path d="M6596 5169 c-2 -8 -10 -39 -16 -69 -6 -30 -18 -72 -26 -93 -16 -44
-17 -47 -5 -47 4 0 16 30 25 68 9 37 22 84 27 105 10 36 5 67 -5 36z"/>
<path d="M496 4925 c-15 -8 -36 -15 -45 -16 -12 0 -12 -2 4 -8 13 -5 31 -1 52
12 50 29 41 39 -11 12z"/>
<path d="M385 4880 c-19 -8 -19 -9 3 -9 12 -1 22 4 22 9 0 6 -1 10 -2 9 -2 0
-12 -4 -23 -9z"/>
<path d="M318 4858 c-16 -5 -28 -13 -28 -18 0 -5 14 -3 30 3 17 6 30 15 30 19
0 4 -1 8 -2 7 -2 0 -15 -5 -30 -11z"/>
<path d="M188 4812 c-61 -28 -81 -50 -25 -28 73 29 97 41 97 48 0 11 -8 9 -72
-20z"/>
<path d="M5085 4818 c-22 -5 -44 -13 -50 -19 -7 -8 0 -9 25 -3 91 22 164 -7
176 -70 20 -110 -139 -138 -243 -43 -30 27 -29 51 4 82 15 14 22 25 16 25 -20
0 -53 -42 -53 -67 0 -31 46 -77 98 -97 107 -40 192 1 192 93 0 64 -86 116
-165 99z"/>
<path d="M240 4771 c0 -5 11 -8 25 -8 14 0 28 3 31 8 3 5 -9 9 -25 9 -17 0
-31 -4 -31 -9z"/>
<path d="M53 4758 c-13 -6 -23 -15 -23 -20 0 -11 0 -11 45 12 41 21 20 28 -22
8z"/>
<path d="M171 4740 c-24 -11 -42 -22 -39 -25 7 -7 88 27 88 37 0 10 2 11 -49
-12z"/>
<path d="M63 4698 c-13 -6 -23 -15 -23 -20 0 -5 6 -7 13 -4 6 3 20 9 30 12 9
4 17 10 17 15 0 11 -9 10 -37 -3z"/>
<path d="M5841 4684 c-76 -33 -112 -103 -76 -150 17 -22 19 -15 6 20 -22 57
36 117 125 129 45 5 63 -5 100 -54 36 -50 33 -101 -8 -132 -18 -14 -53 -27
-78 -31 -37 -5 -53 -2 -89 19 -26 15 -38 19 -31 10 7 -9 32 -25 56 -35 39 -18
45 -19 93 -4 28 8 51 20 51 26 0 6 3 9 6 5 4 -3 14 1 23 10 25 25 18 93 -15
143 -41 61 -92 75 -163 44z"/>
<path d="M4487 4644 c-3 -5 9 -9 26 -10 90 -1 163 -9 175 -17 21 -16 13 -36
-15 -43 -44 -9 -74 -27 -69 -40 3 -7 0 -14 -5 -16 -15 -5 -22 -118 -8 -118 6
0 8 -8 4 -19 -4 -13 0 -20 15 -24 11 -3 20 -11 20 -19 0 -10 -2 -11 -9 0 -9
15 -37 18 -66 9 -16 -5 -32 4 -67 39 -26 25 -54 61 -63 80 -16 35 -27 136 -13
128 3 -2 9 4 13 15 3 11 16 22 28 24 18 4 17 5 -5 6 -16 0 -28 -3 -28 -9 0 -5
-7 -10 -16 -10 -15 0 -16 -9 -11 -71 5 -60 12 -80 40 -120 33 -48 112 -119
132 -119 6 0 16 -9 23 -20 7 -11 21 -20 33 -20 11 0 18 4 15 9 -4 5 17 3 45
-4 29 -8 77 -16 108 -19 l56 -6 -45 13 c-48 13 -66 42 -33 53 71 23 107 64 98
111 -13 66 -16 73 -27 67 -8 -5 -9 -2 -5 9 4 11 0 21 -12 28 -22 14 -17 63 6
55 8 -3 11 -1 8 4 -10 16 19 12 82 -11 62 -23 88 -46 102 -94 8 -26 9 -27 10
-7 3 64 -79 123 -173 125 -30 1 -52 5 -49 10 4 6 -28 11 -79 11 -9 0 -15 3
-12 8 3 4 -10 8 -28 8 -18 0 -69 3 -114 6 -45 4 -84 3 -87 -2z"/>
<path d="M3804 4470 c-12 -5 -24 -21 -28 -36 -4 -15 -17 -41 -30 -58 -26 -36
-33 -78 -10 -69 8 3 14 8 14 12 0 4 21 13 46 20 34 10 81 12 177 8 129 -6 146
-8 177 -20 8 -3 41 -8 72 -11 77 -7 219 -62 212 -81 -9 -21 32 -72 79 -99 60
-36 116 -42 181 -22 52 16 58 16 118 0 78 -21 159 -58 218 -98 56 -39 90 -68
90 -76 0 -3 -16 -24 -36 -46 -61 -66 -70 -116 -29 -160 14 -15 25 -23 25 -19
0 4 9 -2 20 -15 23 -27 117 -38 153 -18 12 7 26 11 30 10 5 -1 6 8 2 20 -4 16
-4 19 3 9 11 -16 32 -6 32 15 0 8 -4 12 -10 9 -13 -8 -13 5 0 25 8 13 10 12
10 -2 0 -33 16 -18 28 27 11 40 16 45 53 55 53 15 47 21 -10 10 -52 -9 -75 -2
-114 35 -27 26 -121 75 -144 75 -6 0 -42 20 -79 45 -36 25 -71 45 -75 45 -5 0
-9 5 -9 10 0 6 -8 10 -18 10 -34 0 -71 53 -74 108 -2 14 -12 15 -56 3 -25 -8
-34 -7 -38 3 -3 8 -29 16 -60 20 -57 7 -166 46 -193 70 -9 7 -28 16 -43 20
-16 3 -28 11 -28 17 0 17 -38 52 -49 44 -6 -3 -11 -2 -11 4 0 17 -49 -10 -55
-31 -8 -23 -32 -23 -176 1 -63 11 -172 22 -242 25 -71 3 -133 8 -138 12 -6 3
1 24 16 51 15 24 25 46 23 48 -1 1 -13 -1 -24 -5z m1453 -776 c-3 -3 -12 -4
-19 -1 -8 3 -5 6 6 6 11 1 17 -2 13 -5z"/>
<path d="M5033 4408 l0 -43 10 33 c7 22 7 36 0 43 -7 7 -10 -4 -10 -33z"/>
<path d="M4988 4319 c-21 -20 -51 -40 -68 -44 -16 -4 -30 -11 -30 -15 0 -5 -7
-7 -15 -4 -8 4 -15 1 -15 -5 0 -33 123 27 160 79 29 40 13 35 -32 -11z"/>
<path d="M3696 4308 c-18 -25 -21 -54 -7 -63 13 -8 22 10 25 50 4 41 2 42 -18
13z"/>
<path d="M5835 4296 c-28 -13 -24 -13 50 -9 44 2 90 5 103 7 12 2 22 -1 22 -5
0 -5 5 -9 10 -9 6 0 27 -7 48 -16 32 -13 35 -17 19 -25 -9 -6 -14 -15 -11 -21
4 -6 3 -8 -3 -5 -14 9 -75 -12 -68 -23 3 -4 -4 -10 -14 -13 -20 -5 -54 -64
-45 -78 3 -5 1 -9 -4 -9 -14 0 -10 -33 5 -49 11 -11 12 -16 2 -21 -6 -5 -9
-17 -7 -28 5 -18 2 -20 -23 -17 -46 6 -97 43 -134 98 -30 44 -35 60 -35 109 0
32 -4 58 -10 58 -5 0 -10 -24 -10 -52 0 -55 25 -123 53 -147 10 -7 17 -19 17
-26 0 -8 6 -16 13 -18 6 -3 7 -6 1 -6 -6 -1 -21 10 -34 24 -29 31 -38 31 -73
1 -29 -25 -30 -51 -4 -84 15 -19 -8 -31 -58 -33 -22 -1 -44 -2 -50 -3 -5 -1
-40 -6 -77 -10 -38 -5 -68 -13 -68 -18 0 -12 92 -3 119 11 9 5 56 7 104 7 l88
-2 45 -52 c47 -53 72 -68 162 -97 49 -16 58 -16 125 -1 40 9 86 14 104 11 28
-3 82 -32 124 -67 21 -18 139 -167 139 -177 0 -4 8 -16 18 -27 21 -23 92 -165
92 -184 0 -21 23 -80 32 -80 8 0 0 28 -13 46 -5 6 -7 13 -4 15 4 4 -1 19 -34
107 -7 17 -17 32 -23 32 -5 0 -8 6 -6 12 3 7 -4 21 -14 32 -10 11 -18 26 -18
33 0 7 -4 13 -10 13 -5 0 -16 15 -25 33 -8 17 -41 62 -73 99 -89 105 -105 128
-90 128 10 0 10 2 -1 9 -11 7 -11 10 0 15 11 5 11 7 2 12 -7 3 -13 11 -13 19
0 14 -43 25 -100 25 -21 0 -43 7 -50 15 -11 13 -8 17 19 26 25 9 30 15 25 34
-4 16 3 33 27 59 24 28 33 48 35 86 2 27 0 52 -6 55 -5 3 -10 15 -10 26 0 12
-4 17 -11 13 -6 -3 -4 8 5 24 22 42 26 43 75 21 24 -10 48 -19 53 -19 6 0 30
-9 53 -21 32 -16 45 -31 58 -62 12 -32 16 -36 16 -19 1 34 -28 79 -58 91 -92
36 -221 80 -251 86 -19 4 -57 16 -85 27 -65 26 -198 34 -240 14z m370 -86 c3
-5 1 -10 -4 -10 -6 0 -11 5 -11 10 0 6 2 10 4 10 3 0 8 -4 11 -10z m-58 -316
c-3 -3 -12 -4 -19 -1 -8 3 -5 6 6 6 11 1 17 -2 13 -5z"/>
<path d="M5760 4270 c-14 -11 -20 -20 -14 -20 6 0 19 9 29 20 23 25 17 25 -15
0z"/>
<path d="M3647 4210 c-9 -22 -17 -45 -17 -51 0 -6 -6 -25 -14 -42 -40 -89 -51
-193 -24 -239 13 -24 15 -29 17 -63 1 -17 3 -18 11 -5 5 8 10 11 10 5 5 -55 9
-77 18 -88 5 -6 24 -39 42 -72 17 -33 40 -67 49 -75 10 -9 16 -20 14 -25 -2
-6 10 -25 27 -43 16 -18 30 -40 30 -48 0 -8 8 -14 18 -15 10 0 12 -3 5 -6 -10
-3 -9 -13 3 -41 29 -65 34 -105 20 -134 -12 -22 -12 -30 0 -47 8 -11 20 -18
27 -15 9 3 14 -8 15 -33 2 -21 7 -40 12 -41 6 -2 8 -7 5 -12 -3 -4 2 -13 10
-20 23 -19 19 -28 -42 -87 -32 -31 -52 -52 -44 -48 9 6 12 4 7 -4 -4 -6 -12
-9 -17 -5 -12 7 -209 -184 -209 -203 0 -7 -4 -13 -10 -13 -14 0 -72 -89 -65
-100 3 -6 -1 -7 -9 -4 -14 6 -21 -5 -17 -28 0 -5 -3 -8 -7 -8 -5 0 -42 -48
-82 -107 -41 -58 -67 -103 -59 -99 8 4 3 -1 -10 -12 -15 -12 -21 -24 -16 -32
5 -8 4 -11 -3 -6 -10 6 -51 -40 -65 -74 -4 -8 -22 -38 -41 -67 -32 -47 -33
-52 -14 -50 13 1 24 12 30 29 6 16 14 28 20 28 6 0 7 8 4 17 -4 10 -4 14 0 11
10 -10 47 40 39 52 -8 13 14 42 25 35 4 -2 24 20 44 50 20 30 53 66 74 79 20
13 64 49 97 81 32 31 70 65 82 75 15 12 21 24 17 35 -6 14 -13 11 -44 -20 -44
-43 -62 -32 -28 17 13 18 27 36 31 39 4 3 7 10 5 15 -6 17 144 184 165 184 5
0 5 5 2 10 -3 6 0 10 7 10 7 0 38 24 68 53 87 81 80 78 141 66 30 -6 64 -12
76 -14 12 -2 29 -7 38 -13 15 -8 15 -11 -8 -33 -13 -13 -34 -31 -47 -39 -12
-8 -41 -28 -64 -45 -22 -16 -59 -39 -82 -51 -73 -39 -173 -108 -168 -116 3 -4
26 9 52 29 26 19 58 41 72 47 25 10 151 88 174 107 6 5 35 27 64 50 29 22 56
47 59 55 9 24 -26 41 -99 49 -64 6 -69 8 -103 49 -23 28 -35 54 -35 73 0 20
-7 35 -21 45 -23 15 -32 71 -16 98 12 21 -19 90 -41 90 -13 0 -14 2 -3 9 10 7
8 18 -14 57 -61 109 -77 134 -87 128 -5 -3 -8 2 -6 12 2 11 -2 18 -8 17 -7 -1
-10 6 -7 17 3 11 0 20 -6 20 -6 0 -11 7 -11 15 0 9 -7 18 -15 21 -8 4 -15 15
-15 25 0 10 -5 19 -11 19 -6 0 -9 7 -6 14 4 10 1 13 -8 10 -10 -4 -12 0 -8 16
3 12 -4 40 -17 65 -38 75 -21 207 46 353 14 30 12 52 -4 52 -4 0 -15 -18 -25
-40z m-126 -1647 c13 -16 12 -17 -3 -4 -17 13 -22 21 -14 21 2 0 10 -8 17 -17z
m-31 -33 c0 -5 -5 -10 -11 -10 -5 0 -7 5 -4 10 3 6 8 10 11 10 2 0 4 -4 4 -10z"/>
<path d="M6451 3981 c-19 -64 -54 -81 -171 -82 -86 -2 -90 -2 -40 -9 65 -8
153 3 185 24 23 15 50 76 43 98 -2 6 -10 -8 -17 -31z"/>
<path d="M5120 3620 c-18 -11 -16 -95 3 -114 13 -13 16 -8 26 40 8 45 8 58 -3
69 -7 8 -18 10 -26 5z"/>
<path d="M5045 3454 c-5 -1 -22 -5 -37 -8 -73 -16 18 -96 112 -98 35 -1 76 18
84 39 4 9 2 11 -6 7 -8 -5 -9 -2 -5 9 4 12 -2 21 -22 32 -16 8 -31 11 -35 8
-3 -4 -6 -2 -6 4 0 9 -59 14 -85 7z"/>
<path d="M3691 2679 c-18 -11 -31 -22 -28 -25 6 -7 63 22 72 36 10 16 -7 12
-44 -11z"/>
<path d="M5770 2571 c0 -5 7 -16 15 -25 8 -8 15 -24 15 -35 0 -12 5 -21 11
-21 12 0 3 35 -19 68 -15 24 -22 28 -22 13z"/>
<path d="M5814 2460 c4 -14 10 -107 13 -208 3 -101 9 -179 13 -175 13 14 -6
383 -20 396 -10 10 -11 7 -6 -13z"/>
<path d="M4231 2413 c-7 -15 -25 -50 -41 -78 -39 -67 -38 -83 2 -20 35 56 61
115 55 122 -3 2 -10 -9 -16 -24z"/>
<path d="M3327 2313 c-4 -3 -7 -11 -7 -17 0 -6 5 -5 12 2 6 6 9 14 7 17 -3 3
-9 2 -12 -2z"/>
<path d="M4134 2250 c-34 -54 -96 -170 -91 -170 10 0 108 161 105 172 -3 9 -7
8 -14 -2z"/>
<path d="M2398 2108 c-40 -53 -43 -65 -10 -34 17 16 29 32 27 37 -3 4 1 9 7
12 7 2 10 7 7 11 -3 4 -17 -8 -31 -26z"/>
<path d="M7010 2120 c-58 -3 -116 -13 -149 -25 -61 -23 -145 -91 -137 -111 3
-8 0 -13 -6 -11 -17 3 -19 -17 -3 -38 14 -20 14 -20 15 0 0 33 56 92 114 120
68 33 278 54 374 37 33 -6 71 -8 84 -5 18 4 20 3 8 -6 -13 -9 -12 -11 5 -11
25 -1 90 -49 120 -90 13 -17 31 -55 40 -83 9 -29 25 -61 36 -72 10 -11 29 -32
42 -47 13 -15 27 -24 32 -20 4 4 4 -3 0 -16 -4 -15 -1 -32 10 -49 9 -14 12
-22 5 -18 -17 10 4 -27 24 -45 21 -17 20 -33 -8 -104 -25 -63 -45 -173 -30
-163 5 3 7 -21 6 -54 -2 -32 3 -89 12 -127 13 -59 14 -75 1 -121 -7 -29 -25
-70 -39 -90 -14 -20 -26 -41 -26 -46 0 -5 -7 -16 -15 -25 -12 -14 -13 -23 -4
-49 6 -18 9 -44 6 -59 -3 -15 -1 -36 3 -47 7 -18 10 -16 24 17 20 46 20 58 0
86 -13 19 -14 27 -2 52 7 17 17 30 22 30 4 0 6 7 3 15 -4 8 -1 17 5 21 7 5 8
2 4 -7 -4 -8 6 1 22 19 28 32 30 39 31 127 1 51 -2 96 -8 99 -5 3 -7 -4 -5
-16 3 -17 2 -19 -3 -6 -5 10 -8 70 -7 135 0 73 -4 121 -10 125 -7 5 -7 8 2 8
6 0 12 11 12 25 0 14 4 25 8 25 12 0 45 78 46 108 1 14 -5 27 -13 30 -9 3 -11
0 -5 -9 6 -12 5 -12 -8 -1 -9 7 -21 36 -27 63 -12 56 -44 110 -90 153 -20 19
-31 40 -31 56 0 40 -27 86 -79 139 -46 46 -119 80 -142 65 -6 -4 -14 -2 -18 4
-8 13 -129 18 -251 12z m395 -80 c3 -6 -1 -7 -9 -4 -18 7 -21 14 -7 14 6 0 13
-4 16 -10z"/>
<path d="M3985 1976 c-26 -53 -51 -96 -56 -96 -5 0 -16 -11 -24 -24 -13 -19
-14 -32 -6 -58 l9 -33 1 39 c1 25 9 48 25 66 28 34 110 190 103 197 -3 2 -27
-38 -52 -91z"/>
<path d="M4867 2023 c-5 -16 -23 -48 -87 -163 -8 -14 -14 -27 -15 -30 0 -3 -9
-18 -21 -35 -11 -16 -40 -65 -64 -107 -24 -43 -47 -78 -50 -78 -4 0 -17 -9
-30 -20 -13 -11 -18 -20 -13 -20 20 0 91 71 104 103 7 17 19 39 26 49 8 9 15
23 17 31 1 8 9 22 19 31 9 10 18 22 18 27 1 5 2 13 3 19 0 5 9 18 18 30 25 29
100 180 89 180 -5 0 -11 -8 -14 -17z"/>
<path d="M5805 1987 c-22 -12 -42 -24 -45 -27 -3 -3 -16 -11 -30 -18 -38 -20
-64 -41 -58 -47 3 -4 36 14 74 39 37 25 73 46 80 46 6 0 17 7 24 15 17 21 2
18 -45 -8z"/>
<path d="M2290 1989 c0 -5 5 -7 10 -4 6 3 10 8 10 11 0 2 -4 4 -10 4 -5 0 -10
-5 -10 -11z"/>
<path d="M2260 1960 c-8 -5 -12 -12 -9 -15 4 -3 12 1 19 10 14 17 11 19 -10 5z"/>
<path d="M6675 1919 c-9 -17 -14 -37 -11 -44 3 -9 0 -12 -10 -8 -10 4 -13 -1
-11 -16 5 -32 13 -35 92 -42 59 -4 81 -11 109 -33 20 -15 41 -24 46 -21 11 7
-74 95 -91 95 -6 0 -8 4 -5 8 3 5 36 8 73 7 74 -2 132 -26 214 -87 24 -18 60
-44 80 -57 19 -13 40 -33 45 -44 10 -23 34 -35 34 -18 0 6 -7 11 -16 11 -8 0
-13 4 -9 9 6 11 -54 71 -72 71 -7 0 -13 4 -13 9 0 11 -114 82 -168 104 -24 9
-85 22 -135 27 -80 8 -95 13 -114 35 l-22 25 -16 -31z"/>
<path d="M2572 1915 c-22 -47 -53 -170 -40 -157 18 18 52 14 114 -13 32 -14
58 -24 58 -23 10 19 56 141 56 148 0 12 -98 57 -143 65 -29 6 -35 3 -45 -20z"/>
<path d="M2178 1874 c-29 -30 -55 -61 -57 -67 -2 -7 9 2 24 18 15 17 43 47 63
68 20 20 33 37 30 37 -4 0 -30 -25 -60 -56z"/>
<path d="M5632 1888 c-7 -7 -12 -16 -12 -20 0 -4 -8 -16 -17 -26 -10 -10 -29
-32 -43 -50 -14 -18 -33 -42 -42 -54 -10 -11 -43 -62 -75 -114 -32 -52 -79
-126 -105 -166 l-46 -72 25 -49 c13 -27 27 -47 29 -44 3 3 1 13 -4 24 -35 67
-35 70 -13 101 11 17 21 33 21 36 0 4 8 15 18 26 9 10 28 41 42 67 13 26 27
50 31 53 3 3 19 25 34 50 44 71 143 197 167 214 15 11 18 16 8 16 -13 0 -13 2
0 10 8 5 10 10 5 10 -6 0 -16 -5 -23 -12z"/>
<path d="M2801 1778 c-37 -87 -37 -85 13 -110 55 -27 70 -18 53 32 -10 27 -10
43 -1 70 13 40 10 50 -14 50 -14 0 -15 -2 -2 -10 8 -5 12 -12 8 -15 -3 -3 -13
1 -22 10 -15 15 -18 13 -35 -27z"/>
<path d="M1279 1724 c-18 -20 -68 -61 -109 -92 -41 -30 -89 -68 -106 -84 -43
-40 -68 -34 -74 17 l-5 40 -16 -40 c-9 -22 -22 -63 -29 -92 -12 -45 -11 -57 5
-100 27 -73 94 -173 116 -173 26 0 125 74 234 174 50 45 117 104 150 131 33
26 75 66 94 88 l35 39 -25 19 c-54 42 -196 109 -231 109 -2 0 -20 -16 -39 -36z"/>
<path d="M3890 1724 c0 -14 4 -23 10 -19 6 3 10 15 10 26 0 10 -4 19 -10 19
-5 0 -10 -12 -10 -26z"/>
<path d="M6893 1738 c2 -7 10 -13 17 -13 7 0 15 6 18 13 2 7 -5 12 -18 12 -13
0 -20 -5 -17 -12z"/>
<path d="M3210 1680 c-64 -72 -140 -206 -140 -245 0 -9 -8 -27 -18 -39 l-17
-23 -40 49 c-22 27 -41 45 -43 39 -2 -6 10 -23 27 -37 34 -28 39 -44 16 -44
-8 0 -15 -5 -15 -11 0 -8 -12 -10 -34 -6 -32 5 -35 4 -51 -39 -9 -24 -15 -49
-13 -56 2 -6 41 -24 87 -39 l83 -28 19 42 c23 50 39 72 59 80 12 4 11 6 -3 6
-10 1 -26 8 -34 17 -45 44 23 214 128 322 33 34 55 62 47 62 -8 0 -34 -23 -58
-50z"/>
<path d="M2510 1700 c-6 -12 -10 -35 -8 -52 3 -28 9 -33 78 -59 41 -16 75 -29
76 -29 4 0 24 64 24 77 0 10 -136 83 -156 83 -2 0 -8 -9 -14 -20z"/>
<path d="M3885 1680 c3 -5 1 -10 -4 -10 -6 0 -11 -5 -11 -11 0 -5 5 -7 10 -4
6 3 10 1 10 -4 0 -6 -6 -11 -14 -11 -11 0 -30 -26 -27 -37 1 -2 -8 -12 -19
-23 -11 -11 -20 -26 -20 -34 0 -8 -7 -16 -15 -20 -8 -3 -15 -10 -15 -16 0 -6
-13 -24 -29 -39 -16 -16 -27 -32 -24 -35 4 -3 -2 -6 -13 -6 -14 0 -16 -2 -6
-9 8 -4 13 -12 12 -17 -2 -9 126 -63 150 -63 16 0 90 95 90 115 0 7 -25 22
-56 33 -65 25 -86 43 -77 66 11 29 78 13 239 -58 82 -36 160 -68 174 -72 14
-4 51 -21 83 -37 32 -16 63 -26 70 -22 7 4 -1 -6 -16 -21 -25 -24 -34 -27 -75
-22 l-47 6 -37 -53 c-44 -63 -45 -61 67 -106 44 -17 86 -34 93 -37 7 -3 12 2
12 12 0 12 5 15 16 11 9 -3 20 -6 25 -6 5 0 13 -10 18 -21 9 -26 -15 -79 -56
-121 -14 -15 -25 -29 -22 -32 9 -8 165 -56 182 -56 24 0 127 72 123 86 -3 6 7
9 25 6 39 -6 37 -29 -7 -80 -32 -38 -34 -43 -17 -48 10 -4 51 -20 91 -35 41
-16 79 -26 85 -22 53 30 87 67 87 94 0 37 25 39 84 4 42 -25 207 -85 232 -85
19 0 134 80 134 94 0 3 -23 17 -51 32 -28 14 -54 34 -56 45 -7 26 -22 24 -141
-16 -117 -40 -159 -43 -195 -15 -15 12 -40 20 -65 20 -22 0 -77 7 -123 14 -46
8 -95 16 -109 18 -14 2 -31 7 -39 12 -8 5 -17 3 -22 -5 -8 -12 -11 -11 -19 3
-6 10 -18 15 -28 12 -14 -5 -14 -4 -2 4 10 8 18 8 27 0 8 -6 16 -8 20 -4 11
11 -7 20 -42 20 -19 0 -30 3 -24 7 7 4 3 12 -12 22 -12 9 -25 14 -29 12 -3 -2
-14 12 -25 31 -10 19 -21 34 -25 34 -4 0 -11 16 -14 35 -4 19 -10 35 -15 35
-11 0 6 116 21 143 7 12 11 28 10 35 -2 7 1 11 5 10 9 -3 133 115 133 126 0 6
-36 -23 -82 -66 -33 -32 -44 -34 -86 -13 -17 9 -44 17 -60 18 -17 1 -28 4 -26
6 7 7 -360 141 -393 143 -7 1 -15 10 -19 20 -3 10 -10 18 -15 18 -6 0 -7 -4
-4 -10z m1050 -710 c3 -6 -1 -7 -9 -4 -18 7 -21 14 -7 14 6 0 13 -4 16 -10z"/>
<path d="M1999 1663 c-13 -16 -12 -17 4 -4 9 7 17 15 17 17 0 8 -8 3 -21 -13z"/>
<path d="M3437 1578 c-42 -61 -74 -128 -59 -128 4 0 2 -4 -4 -8 -14 -9 -26
-72 -14 -72 6 0 10 13 10 29 0 17 4 32 9 35 4 3 14 26 21 50 7 25 20 53 29 63
30 32 63 84 58 89 -3 3 -25 -23 -50 -58z"/>
<path d="M7240 1636 c0 -2 11 -32 24 -67 13 -35 29 -97 36 -136 6 -40 14 -73
17 -73 8 0 -4 107 -17 155 -18 63 -60 149 -60 121z"/>
<path d="M2746 1611 c-3 -4 -8 -25 -11 -47 l-7 -39 69 -26 68 -27 27 25 c14
14 31 22 37 19 14 -9 2 23 -18 49 -11 14 -25 19 -48 17 -18 -2 -49 6 -72 17
-22 12 -42 17 -45 12z"/>
<path d="M1940 1588 c-12 -22 -12 -22 6 -6 10 10 15 20 12 24 -4 3 -12 -5 -18
-18z"/>
<path d="M2466 1503 c-3 -21 -6 -52 -6 -70 0 -30 3 -33 52 -48 28 -8 57 -15
63 -15 19 0 55 103 41 116 -11 11 -118 54 -135 54 -5 0 -11 -17 -15 -37z"/>
<path d="M2682 1418 c-11 -30 -10 -34 10 -50 l23 -18 -24 -6 c-20 -6 -15 -10
39 -31 34 -12 66 -23 70 -23 11 0 43 89 37 104 -5 11 -110 56 -133 56 -5 0
-15 -15 -22 -32z"/>
<path d="M3991 1369 c-23 -33 -41 -62 -39 -64 6 -7 141 -55 152 -55 6 1 27 27
47 59 l37 58 -67 28 c-36 15 -71 29 -76 31 -6 3 -30 -23 -54 -57z"/>
<path d="M3620 1360 c-6 -11 -20 -20 -30 -20 -11 0 -20 -5 -20 -11 0 -5 -3 -8
-7 -6 -5 3 -28 -3 -53 -14 -25 -10 -40 -18 -33 -18 7 -1 10 -7 7 -15 -3 -9 15
-21 58 -39 62 -24 204 -67 225 -67 15 0 74 93 65 102 -4 4 -38 19 -76 33 -71
27 -120 58 -109 69 3 3 1 6 -5 6 -6 0 -16 -9 -22 -20z"/>
<path d="M3158 1312 c11 -7 9 -20 -12 -68 -13 -32 -21 -62 -18 -65 10 -9 164
-59 182 -59 19 0 74 104 66 125 -3 9 -2 14 2 12 4 -3 14 3 24 12 15 15 10 16
-65 17 -74 1 -112 8 -172 29 -14 5 -16 4 -7 -3z m199 -58 c-3 -3 -12 -4 -19
-1 -8 3 -5 6 6 6 11 1 17 -2 13 -5z"/>
<path d="M4741 1290 c-1 -14 -4 -36 -6 -50 l-6 -25 11 25 c6 13 9 36 7 50 l-4
25 -2 -25z"/>
<path d="M5017 1283 c-4 -3 -7 -18 -6 -32 1 -26 1 -25 10 3 9 31 7 41 -4 29z"/>
<path d="M5345 1270 c3 -5 8 -10 11 -10 2 0 4 5 4 10 0 6 -5 10 -11 10 -5 0
-7 -4 -4 -10z"/>
<path d="M3880 1197 c-14 -23 -26 -45 -28 -48 -5 -10 160 -62 168 -52 4 4 17
25 29 45 l23 38 -29 11 c-101 39 -129 49 -133 49 -3 0 -16 -19 -30 -43z"/>
<path d="M3424 1150 c-14 -22 -24 -46 -21 -53 5 -14 135 -57 172 -57 11 0 40
-6 64 -14 l44 -13 22 41 c13 23 20 44 16 47 -3 4 -33 14 -66 23 -33 10 -88 28
-123 41 -34 14 -67 25 -72 25 -5 0 -22 -18 -36 -40z"/>
<path d="M4991 1154 c0 -11 3 -14 6 -6 3 7 2 16 -1 19 -3 4 -6 -2 -5 -13z"/>
<path d="M4675 1140 c-10 -11 -16 -22 -13 -25 3 -3 13 6 22 20 20 30 16 32 -9
5z"/>
<path d="M4129 1128 c-7 -12 -18 -29 -26 -36 -26 -27 -16 -33 125 -77 l54 -17
29 28 c16 15 29 33 29 39 0 6 -37 25 -82 42 -46 17 -91 34 -100 38 -11 4 -20
-1 -29 -17z"/>
<path d="M4629 1083 c-13 -16 -12 -17 4 -4 16 13 21 21 13 21 -2 0 -10 -8 -17
-17z"/>
<path d="M3776 1038 c-14 -24 -22 -46 -18 -50 8 -7 173 -51 176 -46 14 26 36
81 33 84 -5 5 -148 54 -158 54 -4 0 -19 -19 -33 -42z"/>
<path d="M4930 1035 c-7 -9 -11 -17 -9 -20 3 -2 10 5 17 15 14 24 10 26 -8 5z"/>
<path d="M4021 967 c-11 -19 -21 -37 -21 -39 0 -3 36 -16 80 -28 l81 -23 29
28 c17 16 30 31 30 35 0 3 -33 16 -72 27 -40 12 -80 25 -89 28 -12 4 -23 -4
-38 -28z"/>
<path d="M4274 887 c-43 -37 -40 -39 77 -68 l82 -20 28 27 c16 15 26 31 22 35
-5 4 -45 18 -91 32 l-83 25 -35 -31z"/>
<path d="M4968 825 c-16 -13 -28 -26 -28 -28 0 -2 28 -14 63 -27 34 -12 68
-27 75 -32 14 -12 100 39 86 51 -8 7 -157 61 -166 61 -1 0 -15 -12 -30 -25z"/>
<path d="M4556 809 c-14 -11 -26 -24 -26 -28 0 -5 43 -19 96 -31 82 -19 100
-20 120 -9 14 7 23 17 21 23 -4 13 -133 64 -163 65 -12 1 -33 -8 -48 -20z"/>
<path d="M4841 724 c-24 -17 -28 -34 -7 -34 7 0 37 -7 65 -17 44 -14 55 -14
76 -3 31 17 32 26 3 34 -13 3 -44 12 -69 20 -41 13 -49 13 -68 0z"/>
</g>
</svg>
